# xmcd
#
# Track frame offsets: 
#        150
#        13193
#        23318
#        36406
#        48507
#        62255
#        74852
#        87227
#        99615
#
# Disc length: 1632 seconds
#
# Revision: 0
# Processed by: cddbd v1.5.1PL0 Copyright (c) Steve Scherf et al.
# Submitted via: ExactAudioCopy v0.95a5
#
DISCID=72065e09
DTITLE=Conway Twitty - How Much More Can She Stand
DYEAR=1971
DGENRE=Country
TTITLE0=How Much More Can She Stand
TTITLE1=Everyday Family Man
TTITLE2=Help Me Make It Through The Night
TTITLE3=Just Like A Stranger
TTITLE4=The Last One To Touch Me
TTITLE5=Amos Moses
TTITLE6=The Memory Of Your Sweet Love
TTITLE7=Let Me Be The Judge
TTITLE8=Hank Williams Medley
EXTD=
EXTT0=
EXTT1=
EXTT2=
EXTT3=
EXTT4=
EXTT5=
EXTT6=
EXTT7=
EXTT8=
PLAYORDER=
